<?xml version="1.0" encoding="UTF-8"?>
<!DOCTYPE svg PUBLIC "-//W3C//DTD SVG 1.1//EN" "http://www.w3.org/Graphics/SVG/1.1/DTD/svg11.dtd">
<svg xmlns="http://www.w3.org/2000/svg" version="1.1" width="500px" height="500px" style="shape-rendering:geometricPrecision; text-rendering:geometricPrecision; image-rendering:optimizeQuality; fill-rule:evenodd; clip-rule:evenodd" xmlns:xlink="http://www.w3.org/1999/xlink">
<g><path style="opacity:1" fill="#fefefe" d="M -0.5,-0.5 C 166.167,-0.5 332.833,-0.5 499.5,-0.5C 499.5,166.167 499.5,332.833 499.5,499.5C 332.833,499.5 166.167,499.5 -0.5,499.5C -0.5,332.833 -0.5,166.167 -0.5,-0.5 Z"/></g>
<g><path style="opacity:1" fill="#e75a86" d="M 97.5,36.5 C 105.167,36.5 112.833,36.5 120.5,36.5C 119.081,37.4511 117.415,37.7845 115.5,37.5C 115.8,40.244 114.633,41.9106 112,42.5C 107.205,43.3579 102.372,43.6912 97.5,43.5C 95.369,42.6862 93.0356,42.1862 90.5,42C 91.1667,40.6667 91.8333,39.3333 92.5,38C 94.3817,37.8019 96.0484,37.3019 97.5,36.5 Z"/></g>
<g><path style="opacity:1" fill="#e25e91" d="M 120.5,36.5 C 126.833,36.5 133.167,36.5 139.5,36.5C 139.918,37.2216 140.584,37.7216 141.5,38C 141.033,41.4649 139.033,43.1316 135.5,43C 137.382,43.1981 139.048,43.6981 140.5,44.5C 125.5,44.5 110.5,44.5 95.5,44.5C 95.5,44.1667 95.5,43.8333 95.5,43.5C 96.1667,43.5 96.8333,43.5 97.5,43.5C 102.372,43.6912 107.205,43.3579 112,42.5C 114.633,41.9106 115.8,40.244 115.5,37.5C 117.415,37.7845 119.081,37.4511 120.5,36.5 Z"/></g>
<g><path style="opacity:1" fill="#db62a5" d="M 139.5,36.5 C 154.167,36.5 168.833,36.5 183.5,36.5C 186.028,37.1657 188.694,37.8324 191.5,38.5C 190.754,39.7362 190.421,41.0695 190.5,42.5C 187.311,42.8583 184.311,43.525 181.5,44.5C 167.833,44.5 154.167,44.5 140.5,44.5C 139.048,43.6981 137.382,43.1981 135.5,43C 139.033,43.1316 141.033,41.4649 141.5,38C 140.584,37.7216 139.918,37.2216 139.5,36.5 Z"/></g>
<g><path style="opacity:1" fill="#d468bb" d="M 183.5,36.5 C 199.833,36.5 216.167,36.5 232.5,36.5C 232.5,37.1667 232.833,37.5 233.5,37.5C 233.318,40.703 231.652,42.5363 228.5,43C 232.025,43.1787 235.359,43.6787 238.5,44.5C 219.5,44.5 200.5,44.5 181.5,44.5C 184.311,43.525 187.311,42.8583 190.5,42.5C 190.421,41.0695 190.754,39.7362 191.5,38.5C 188.694,37.8324 186.028,37.1657 183.5,36.5 Z"/></g>
<g><path style="opacity:1" fill="#cf6dc6" d="M 233.5,37.5 C 238.179,37.3342 242.845,37.5008 247.5,38C 245.701,41.7246 244.534,45.5579 244,49.5C 245.333,48.1667 246.667,46.8333 248,45.5C 248.995,46.0659 249.828,46.7326 250.5,47.5C 241.259,54.4009 232.592,62.0675 224.5,70.5C 224.082,69.7784 223.416,69.2784 222.5,69C 224.379,65.9203 225.046,62.7537 224.5,59.5C 228.5,54.8333 232.833,50.5 237.5,46.5C 238.338,46.1583 238.672,45.4916 238.5,44.5C 235.359,43.6787 232.025,43.1787 228.5,43C 231.652,42.5363 233.318,40.703 233.5,37.5 Z"/></g>
<g><path style="opacity:1" fill="#c771dd" d="M 257.5,36.5 C 269.833,36.5 282.167,36.5 294.5,36.5C 296.292,37.3091 298.292,37.8091 300.5,38C 300.033,41.4649 298.033,43.1316 294.5,43C 300.016,43.1733 305.349,43.6733 310.5,44.5C 299.167,44.5 287.833,44.5 276.5,44.5C 273.359,43.6787 270.025,43.1787 266.5,43C 270.466,43.1425 272.466,41.3092 272.5,37.5C 267.305,37.8205 262.305,37.4872 257.5,36.5 Z"/></g>
<g><path style="opacity:1" fill="#ba77ee" d="M 294.5,36.5 C 317.5,36.5 340.5,36.5 363.5,36.5C 360.695,37.3195 357.695,37.8195 354.5,38C 353.833,39.3333 353.167,40.6667 352.5,42C 353.167,42.3333 353.833,42.6667 354.5,43C 348.652,43.1728 342.985,43.6728 337.5,44.5C 328.5,44.5 319.5,44.5 310.5,44.5C 305.349,43.6733 300.016,43.1733 294.5,43C 298.033,43.1316 300.033,41.4649 300.5,38C 298.292,37.8091 296.292,37.3091 294.5,36.5 Z"/></g>
<g><path style="opacity:1" fill="#a382ee" d="M 363.5,36.5 C 377.167,36.5 390.833,36.5 404.5,36.5C 400.316,37.1664 395.982,37.8331 391.5,38.5C 390.479,42.1591 388.146,44.1591 384.5,44.5C 368.833,44.5 353.167,44.5 337.5,44.5C 342.985,43.6728 348.652,43.1728 354.5,43C 353.833,42.6667 353.167,42.3333 352.5,42C 353.167,40.6667 353.833,39.3333 354.5,38C 357.695,37.8195 360.695,37.3195 363.5,36.5 Z"/></g>
<g><path style="opacity:1" fill="#8f8cec" d="M 404.5,36.5 C 411.508,36.3337 418.508,36.5004 425.5,37C 427.439,38.4321 428.772,40.2654 429.5,42.5C 428.917,45.9466 427.584,48.9466 425.5,51.5C 424.15,48.894 422.65,48.894 421,51.5C 411.304,66.6757 401.47,81.6757 391.5,96.5C 391.077,95.7354 390.743,94.9021 390.5,94C 392.361,88.4459 394.361,82.9459 396.5,77.5C 396.043,76.7025 395.376,76.3691 394.5,76.5C 401.405,66.3651 408.072,56.0317 414.5,45.5C 404.522,44.5015 394.522,44.1681 384.5,44.5C 388.146,44.1591 390.479,42.1591 391.5,38.5C 395.982,37.8331 400.316,37.1664 404.5,36.5 Z"/></g>
<g><path style="opacity:1" fill="#ec5a78" d="M 97.5,36.5 C 96.0484,37.3019 94.3817,37.8019 92.5,38C 91.8333,39.3333 91.1667,40.6667 90.5,42C 93.0356,42.1862 95.369,42.6862 97.5,43.5C 96.8333,43.5 96.1667,43.5 95.5,43.5C 91.5,43.5 87.5,43.5 83.5,43.5C 85.0471,47.7147 84.5471,51.7147 82,55.5C 81.5831,54.244 80.7498,53.5774 79.5,53.5C 78.343,51.8624 77.1764,50.1957 76,48.5C 65.3037,64.6776 54.4703,80.6776 43.5,96.5C 44.9311,89.0401 47.2644,81.8735 50.5,75C 49.9056,74.5357 49.2389,74.369 48.5,74.5C 56.6114,61.8818 64.9447,49.3818 73.5,37C 81.4931,36.5003 89.4931,36.3336 97.5,36.5 Z"/></g>
<g><path style="opacity:1" fill="#cb6fd1" d="M 232.5,36.5 C 240.833,36.5 249.167,36.5 257.5,36.5C 262.305,37.4872 267.305,37.8205 272.5,37.5C 272.466,41.3092 270.466,43.1425 266.5,43C 270.025,43.1787 273.359,43.6787 276.5,44.5C 271.456,44.1725 266.456,44.5059 261.5,45.5C 263.856,48.1864 266.189,50.853 268.5,53.5C 265.043,56.8999 265.21,59.8999 269,62.5C 269.483,63.448 269.649,64.448 269.5,65.5C 263.167,59.5 256.833,53.5 250.5,47.5C 249.828,46.7326 248.995,46.0659 248,45.5C 246.667,46.8333 245.333,48.1667 244,49.5C 244.534,45.5579 245.701,41.7246 247.5,38C 242.845,37.5008 238.179,37.3342 233.5,37.5C 232.833,37.5 232.5,37.1667 232.5,36.5 Z"/></g>
<g><path style="opacity:1" fill="#efbad6" d="M 95.5,44.5 C 110.5,44.5 125.5,44.5 140.5,44.5C 154.167,44.5 167.833,44.5 181.5,44.5C 200.5,44.5 219.5,44.5 238.5,44.5C 238.672,45.4916 238.338,46.1583 237.5,46.5C 186.833,45.1667 136.167,45.1667 85.5,46.5C 84.9569,46.44 84.6236,46.1067 84.5,45.5C 88.1073,44.5108 91.774,44.1774 95.5,44.5 Z"/></g>
<g><path style="opacity:1" fill="#fefefe" d="M 237.5,46.5 C 232.833,50.5 228.5,54.8333 224.5,59.5C 213.199,69.134 202.532,79.4673 192.5,90.5C 176.197,105.469 160.197,120.802 144.5,136.5C 136.846,125.204 129.18,113.87 121.5,102.5C 115.5,93.1667 109.5,83.8333 103.5,74.5C 97.1057,65.4352 91.1057,56.1019 85.5,46.5C 136.167,45.1667 186.833,45.1667 237.5,46.5 Z"/></g>
<g><path style="opacity:1" fill="#fdfdfe" d="M 276.5,44.5 C 287.833,44.5 299.167,44.5 310.5,44.5C 319.5,44.5 328.5,44.5 337.5,44.5C 353.167,44.5 368.833,44.5 384.5,44.5C 394.522,44.1681 404.522,44.5015 414.5,45.5C 408.072,56.0317 401.405,66.3651 394.5,76.5C 381.592,96.6428 368.426,116.643 355,136.5C 354.617,135.944 354.117,135.611 353.5,135.5C 349.129,130.127 344.129,125.461 338.5,121.5C 330.167,112.5 321.5,103.833 312.5,95.5C 298.136,81.1352 283.47,67.1352 268.5,53.5C 266.189,50.853 263.856,48.1864 261.5,45.5C 266.456,44.5059 271.456,44.1725 276.5,44.5 Z"/></g>
<g><path style="opacity:1" fill="#fefefe" d="M 250.5,47.5 C 256.833,53.5 263.167,59.5 269.5,65.5C 283.144,79.1429 297.144,92.4762 311.5,105.5C 317.452,112.119 323.785,118.452 330.5,124.5C 335.07,128.614 339.403,132.947 343.5,137.5C 280.833,138.833 218.167,138.833 155.5,137.5C 165.887,127.445 176.22,117.445 186.5,107.5C 199.193,95.1393 211.86,82.8059 224.5,70.5C 232.592,62.0675 241.259,54.4009 250.5,47.5 Z"/></g>
<g><path style="opacity:1" fill="#fefdfd" d="M 79.5,53.5 C 85.8077,63.7949 92.4744,73.7949 99.5,83.5C 104.672,92.5166 110.339,101.183 116.5,109.5C 122.228,119.278 128.228,128.945 134.5,138.5C 122.852,139.499 111.186,139.832 99.5,139.5C 88.8333,139.5 78.1667,139.5 67.5,139.5C 50.1338,140.152 33.1338,139.486 16.5,137.5C 25.7485,124.005 34.7485,110.338 43.5,96.5C 54.4703,80.6776 65.3037,64.6776 76,48.5C 77.1764,50.1957 78.343,51.8624 79.5,53.5 Z"/></g>
<g><path style="opacity:1" fill="#fefefe" d="M 425.5,51.5 C 432.167,61.5 438.833,71.5 445.5,81.5C 451.5,90.5 457.5,99.5 463.5,108.5C 470.082,117.996 476.415,127.662 482.5,137.5C 443.5,138.833 404.5,138.833 365.5,137.5C 374.167,123.833 382.833,110.167 391.5,96.5C 401.47,81.6757 411.304,66.6757 421,51.5C 422.65,48.894 424.15,48.894 425.5,51.5 Z"/></g>
<g><path style="opacity:1" fill="#e65f88" d="M 95.5,43.5 C 95.5,43.8333 95.5,44.1667 95.5,44.5C 91.774,44.1774 88.1073,44.5108 84.5,45.5C 84.6236,46.1067 84.9569,46.44 85.5,46.5C 91.1057,56.1019 97.1057,65.4352 103.5,74.5C 102.483,77.5436 101.149,80.5436 99.5,83.5C 92.4744,73.7949 85.8077,63.7949 79.5,53.5C 80.7498,53.5774 81.5831,54.244 82,55.5C 84.5471,51.7147 85.0471,47.7147 83.5,43.5C 87.5,43.5 91.5,43.5 95.5,43.5 Z"/></g>
<g><path style="opacity:1" fill="#7d95ec" d="M 429.5,42.5 C 436.526,52.2051 443.192,62.2051 449.5,72.5C 449.674,76.3598 448.341,79.3598 445.5,81.5C 438.833,71.5 432.167,61.5 425.5,51.5C 427.584,48.9466 428.917,45.9466 429.5,42.5 Z"/></g>
<g><path style="opacity:1" fill="#d36cbd" d="M 224.5,59.5 C 225.046,62.7537 224.379,65.9203 222.5,69C 223.416,69.2784 224.082,69.7784 224.5,70.5C 211.86,82.8059 199.193,95.1393 186.5,107.5C 185.761,107.631 185.094,107.464 184.5,107C 186.893,101.293 189.56,95.7931 192.5,90.5C 202.532,79.4673 213.199,69.134 224.5,59.5 Z"/></g>
<g><path style="opacity:1" fill="#c475e4" d="M 268.5,53.5 C 283.47,67.1352 298.136,81.1352 312.5,95.5C 310.859,96.8705 309.859,98.7039 309.5,101C 310.414,102.406 311.08,103.906 311.5,105.5C 297.144,92.4762 283.144,79.1429 269.5,65.5C 269.649,64.448 269.483,63.448 269,62.5C 265.21,59.8999 265.043,56.8999 268.5,53.5 Z"/></g>
<g><path style="opacity:1" fill="#6d9ceb" d="M 449.5,72.5 C 455.735,81.2911 461.735,90.2911 467.5,99.5C 466.686,101.631 466.186,103.964 466,106.5C 465.583,107.756 464.75,108.423 463.5,108.5C 457.5,99.5 451.5,90.5 445.5,81.5C 448.341,79.3598 449.674,76.3598 449.5,72.5 Z"/></g>
<g><path style="opacity:1" fill="#e26294" d="M 103.5,74.5 C 109.5,83.8333 115.5,93.1667 121.5,102.5C 120.5,102.5 119.5,102.5 118.5,102.5C 118.233,104.965 117.566,107.299 116.5,109.5C 110.339,101.183 104.672,92.5166 99.5,83.5C 101.149,80.5436 102.483,77.5436 103.5,74.5 Z"/></g>
<g><path style="opacity:1" fill="#b47cee" d="M 312.5,95.5 C 321.5,103.833 330.167,112.5 338.5,121.5C 337.504,121.414 336.671,121.748 336,122.5C 335.71,124.044 335.044,125.377 334,126.5C 333.29,125.027 332.124,124.36 330.5,124.5C 323.785,118.452 317.452,112.119 311.5,105.5C 311.08,103.906 310.414,102.406 309.5,101C 309.859,98.7039 310.859,96.8705 312.5,95.5 Z"/></g>
<g><path style="opacity:1" fill="#9988ec" d="M 394.5,76.5 C 395.376,76.3691 396.043,76.7025 396.5,77.5C 394.361,82.9459 392.361,88.4459 390.5,94C 390.743,94.9021 391.077,95.7354 391.5,96.5C 382.833,110.167 374.167,123.833 365.5,137.5C 364.833,137.5 364.5,137.833 364.5,138.5C 363.957,138.56 363.624,138.893 363.5,139.5C 368.132,140.328 372.798,140.828 377.5,141C 378.167,141.333 378.833,141.667 379.5,142C 378.663,143.011 378.33,144.178 378.5,145.5C 372.018,146.045 365.685,146.712 359.5,147.5C 326.608,248.006 294.442,348.672 263,449.5C 264.176,447.804 265.343,446.138 266.5,444.5C 268.411,444.426 269.578,443.426 270,441.5C 269.577,445.95 268.41,450.284 266.5,454.5C 266.863,455.183 267.196,455.85 267.5,456.5C 262.745,463.769 257.745,470.935 252.5,478C 250.421,478.808 248.421,478.641 246.5,477.5C 243.476,473.482 240.476,469.482 237.5,465.5C 239.335,464.878 240.502,463.544 241,461.5C 242.41,457.101 243.91,452.768 245.5,448.5C 246.841,452.156 248.341,455.823 250,459.5C 283.072,356.118 316.239,252.785 349.5,149.5C 350.043,149.44 350.376,149.107 350.5,148.5C 349.311,147.571 347.978,147.238 346.5,147.5C 347.609,146.71 348.942,146.21 350.5,146C 350.505,142.452 351.505,138.952 353.5,135.5C 354.117,135.611 354.617,135.944 355,136.5C 368.426,116.643 381.592,96.6428 394.5,76.5 Z"/></g>
<g><path style="opacity:1" fill="#ee5871" d="M 48.5,74.5 C 49.2389,74.369 49.9056,74.5357 50.5,75C 47.2644,81.8735 44.9311,89.0401 43.5,96.5C 34.7485,110.338 25.7485,124.005 16.5,137.5C 15.596,138.209 15.2627,139.209 15.5,140.5C 26.505,140.333 37.505,140.5 48.5,141C 49.5,141.333 50.5,141.667 51.5,142C 50.6634,143.011 50.33,144.178 50.5,145.5C 44.671,145.968 39.0044,146.635 33.5,147.5C 27.7945,147.171 22.1278,147.505 16.5,148.5C 16.6236,149.107 16.9569,149.44 17.5,149.5C 24.1921,159.185 30.8587,168.851 37.5,178.5C 38.7772,181.205 38.6105,183.872 37,186.5C 36.3292,187.252 35.4959,187.586 34.5,187.5C 24.8634,175.017 15.3634,162.35 6,149.5C 3.72895,146.88 3.06229,143.88 4,140.5C 18.6963,118.323 33.5297,96.3227 48.5,74.5 Z"/></g>
<g><path style="opacity:1" fill="#dd639f" d="M 121.5,102.5 C 129.18,113.87 136.846,125.204 144.5,136.5C 145.496,136.586 146.329,136.252 147,135.5C 147.167,136 147.333,136.5 147.5,137C 145.767,142.055 143.767,146.888 141.5,151.5C 140.89,150.609 140.557,149.609 140.5,148.5C 123.341,147.503 106.008,147.17 88.5,147.5C 88.3893,146.883 88.056,146.383 87.5,146C 90.9008,146.266 92.5674,144.766 92.5,141.5C 91.1266,141.657 89.7932,141.49 88.5,141C 92.3563,140.823 96.023,140.323 99.5,139.5C 111.186,139.832 122.852,139.499 134.5,138.5C 128.228,128.945 122.228,119.278 116.5,109.5C 117.566,107.299 118.233,104.965 118.5,102.5C 119.5,102.5 120.5,102.5 121.5,102.5 Z"/></g>
<g><path style="opacity:1" fill="#d767b0" d="M 192.5,90.5 C 189.56,95.7931 186.893,101.293 184.5,107C 185.094,107.464 185.761,107.631 186.5,107.5C 176.22,117.445 165.887,127.445 155.5,137.5C 154.833,137.5 154.5,137.833 154.5,138.5C 153.957,138.56 153.624,138.893 153.5,139.5C 162.148,140.332 170.814,140.832 179.5,141C 177.5,141.333 175.5,141.667 173.5,142C 172.663,143.011 172.33,144.178 172.5,145.5C 170.801,145.34 169.134,145.506 167.5,146C 170.365,146.183 173.031,146.683 175.5,147.5C 166.651,147.174 157.984,147.507 149.5,148.5C 151.833,155.833 154.167,163.167 156.5,170.5C 155.5,170.5 154.5,170.5 153.5,170.5C 153.02,173.443 152.02,176.11 150.5,178.5C 147.054,169.745 144.054,160.745 141.5,151.5C 143.767,146.888 145.767,142.055 147.5,137C 147.333,136.5 147.167,136 147,135.5C 146.329,136.252 145.496,136.586 144.5,136.5C 160.197,120.802 176.197,105.469 192.5,90.5 Z"/></g>
<g><path style="opacity:1" fill="#a583ed" d="M 338.5,121.5 C 344.129,125.461 349.129,130.127 353.5,135.5C 351.505,138.952 350.505,142.452 350.5,146C 348.942,146.21 347.609,146.71 346.5,147.5C 338.5,147.5 330.5,147.5 322.5,147.5C 325.305,146.681 328.305,146.181 331.5,146C 330.552,145.517 329.552,145.351 328.5,145.5C 328.33,144.178 328.663,143.011 329.5,142C 331.5,141.667 333.5,141.333 335.5,141C 330.511,140.501 325.511,140.334 320.5,140.5C 320.5,140.167 320.5,139.833 320.5,139.5C 328.528,139.831 336.528,139.498 344.5,138.5C 344.376,137.893 344.043,137.56 343.5,137.5C 339.403,132.947 335.07,128.614 330.5,124.5C 332.124,124.36 333.29,125.027 334,126.5C 335.044,125.377 335.71,124.044 336,122.5C 336.671,121.748 337.504,121.414 338.5,121.5 Z"/></g>
<g><path style="opacity:1" fill="#5ca5eb" d="M 467.5,99.5 C 477.654,113.798 487.321,128.464 496.5,143.5C 477.226,171.724 457.226,199.391 436.5,226.5C 436.522,220.714 437.855,215.048 440.5,209.5C 440.376,208.893 440.043,208.56 439.5,208.5C 453.808,188.518 468.142,168.518 482.5,148.5C 466.18,147.501 449.847,147.167 433.5,147.5C 439.987,146.672 446.654,146.172 453.5,146C 453.034,144.701 453.034,143.201 453.5,141.5C 454.552,141.649 455.552,141.483 456.5,141C 452.975,140.821 449.641,140.321 446.5,139.5C 458.851,139.832 471.185,139.499 483.5,138.5C 483.376,137.893 483.043,137.56 482.5,137.5C 476.415,127.662 470.082,117.996 463.5,108.5C 464.75,108.423 465.583,107.756 466,106.5C 466.186,103.964 466.686,101.631 467.5,99.5 Z"/></g>
<g><path style="opacity:1" fill="#ecd5f4" d="M 155.5,137.5 C 218.167,138.833 280.833,138.833 343.5,137.5C 344.043,137.56 344.376,137.893 344.5,138.5C 336.528,139.498 328.528,139.831 320.5,139.5C 294.833,139.5 269.167,139.5 243.5,139.5C 213.662,139.831 183.995,139.498 154.5,138.5C 154.5,137.833 154.833,137.5 155.5,137.5 Z"/></g>
<g><path style="opacity:1" fill="#d6dff9" d="M 365.5,137.5 C 404.5,138.833 443.5,138.833 482.5,137.5C 483.043,137.56 483.376,137.893 483.5,138.5C 471.185,139.499 458.851,139.832 446.5,139.5C 437.833,139.5 429.167,139.5 420.5,139.5C 408.167,139.5 395.833,139.5 383.5,139.5C 376.978,139.823 370.645,139.49 364.5,138.5C 364.5,137.833 364.833,137.5 365.5,137.5 Z"/></g>
<g><path style="opacity:1" fill="#e95d81" d="M 16.5,137.5 C 33.1338,139.486 50.1338,140.152 67.5,139.5C 66.3915,140.29 65.0581,140.79 63.5,141C 64.8333,141.333 66.1667,141.667 67.5,142C 66.6634,143.011 66.33,144.178 66.5,145.5C 63.9899,145.054 61.9899,145.72 60.5,147.5C 51.5,147.5 42.5,147.5 33.5,147.5C 39.0044,146.635 44.671,145.968 50.5,145.5C 50.33,144.178 50.6634,143.011 51.5,142C 50.5,141.667 49.5,141.333 48.5,141C 37.505,140.5 26.505,140.333 15.5,140.5C 15.2627,139.209 15.596,138.209 16.5,137.5 Z"/></g>
<g><path style="opacity:1" fill="#e45e8c" d="M 67.5,139.5 C 78.1667,139.5 88.8333,139.5 99.5,139.5C 96.023,140.323 92.3563,140.823 88.5,141C 89.7932,141.49 91.1266,141.657 92.5,141.5C 92.5674,144.766 90.9008,146.266 87.5,146C 88.056,146.383 88.3893,146.883 88.5,147.5C 79.1667,147.5 69.8333,147.5 60.5,147.5C 61.9899,145.72 63.9899,145.054 66.5,145.5C 66.33,144.178 66.6634,143.011 67.5,142C 66.1667,141.667 64.8333,141.333 63.5,141C 65.0581,140.79 66.3915,140.29 67.5,139.5 Z"/></g>
<g><path style="opacity:1" fill="#d06dc3" d="M 154.5,138.5 C 183.995,139.498 213.662,139.831 243.5,139.5C 243.5,139.833 243.5,140.167 243.5,140.5C 230.496,140.333 217.496,140.5 204.5,141C 206.833,141.333 209.167,141.667 211.5,142C 210.663,143.011 210.33,144.178 210.5,145.5C 208.143,145.337 205.81,145.503 203.5,146C 208.684,146.174 213.684,146.674 218.5,147.5C 204.167,147.5 189.833,147.5 175.5,147.5C 173.031,146.683 170.365,146.183 167.5,146C 169.134,145.506 170.801,145.34 172.5,145.5C 172.33,144.178 172.663,143.011 173.5,142C 175.5,141.667 177.5,141.333 179.5,141C 170.814,140.832 162.148,140.332 153.5,139.5C 153.624,138.893 153.957,138.56 154.5,138.5 Z"/></g>
<g><path style="opacity:1" fill="#c86dd5" d="M 243.5,140.5 C 250.54,140.413 257.54,140.913 264.5,142C 263.663,143.011 263.33,144.178 263.5,145.5C 261.219,145.077 259.552,145.744 258.5,147.5C 245.167,147.5 231.833,147.5 218.5,147.5C 213.684,146.674 208.684,146.174 203.5,146C 205.81,145.503 208.143,145.337 210.5,145.5C 210.33,144.178 210.663,143.011 211.5,142C 209.167,141.667 206.833,141.333 204.5,141C 217.496,140.5 230.496,140.333 243.5,140.5 Z"/></g>
<g><path style="opacity:1" fill="#bd75eb" d="M 243.5,140.5 C 243.5,140.167 243.5,139.833 243.5,139.5C 269.167,139.5 294.833,139.5 320.5,139.5C 320.5,139.833 320.5,140.167 320.5,140.5C 315.768,140.378 311.102,140.878 306.5,142C 303.502,144.808 304.169,146.141 308.5,146C 306.292,146.191 304.292,146.691 302.5,147.5C 287.833,147.5 273.167,147.5 258.5,147.5C 259.552,145.744 261.219,145.077 263.5,145.5C 263.33,144.178 263.663,143.011 264.5,142C 257.54,140.913 250.54,140.413 243.5,140.5 Z"/></g>
<g><path style="opacity:1" fill="#af7bed" d="M 320.5,140.5 C 325.511,140.334 330.511,140.501 335.5,141C 333.5,141.333 331.5,141.667 329.5,142C 328.663,143.011 328.33,144.178 328.5,145.5C 329.552,145.351 330.552,145.517 331.5,146C 328.305,146.181 325.305,146.681 322.5,147.5C 315.833,147.5 309.167,147.5 302.5,147.5C 304.292,146.691 306.292,146.191 308.5,146C 304.169,146.141 303.502,144.808 306.5,142C 311.102,140.878 315.768,140.378 320.5,140.5 Z"/></g>
<g><path style="opacity:1" fill="#888eec" d="M 364.5,138.5 C 370.645,139.49 376.978,139.823 383.5,139.5C 389.685,140.288 396.018,140.955 402.5,141.5C 402.67,142.822 402.337,143.989 401.5,145C 395.712,145.961 390.045,146.795 384.5,147.5C 376.167,147.5 367.833,147.5 359.5,147.5C 365.685,146.712 372.018,146.045 378.5,145.5C 378.33,144.178 378.663,143.011 379.5,142C 378.833,141.667 378.167,141.333 377.5,141C 372.798,140.828 368.132,140.328 363.5,139.5C 363.624,138.893 363.957,138.56 364.5,138.5 Z"/></g>
<g><path style="opacity:1" fill="#7d95ec" d="M 383.5,139.5 C 395.833,139.5 408.167,139.5 420.5,139.5C 422.255,140.792 424.255,141.792 426.5,142.5C 426.167,143.167 425.833,143.833 425.5,144.5C 419.774,145.882 414.107,146.882 408.5,147.5C 400.5,147.5 392.5,147.5 384.5,147.5C 390.045,146.795 395.712,145.961 401.5,145C 402.337,143.989 402.67,142.822 402.5,141.5C 396.018,140.955 389.685,140.288 383.5,139.5 Z"/></g>
<g><path style="opacity:1" fill="#6c9bec" d="M 420.5,139.5 C 429.167,139.5 437.833,139.5 446.5,139.5C 449.641,140.321 452.975,140.821 456.5,141C 455.552,141.483 454.552,141.649 453.5,141.5C 453.034,143.201 453.034,144.701 453.5,146C 446.654,146.172 439.987,146.672 433.5,147.5C 425.167,147.5 416.833,147.5 408.5,147.5C 414.107,146.882 419.774,145.882 425.5,144.5C 425.833,143.833 426.167,143.167 426.5,142.5C 424.255,141.792 422.255,140.792 420.5,139.5 Z"/></g>
<g><path style="opacity:1" fill="#f2b8cc" d="M 33.5,147.5 C 42.5,147.5 51.5,147.5 60.5,147.5C 69.8333,147.5 79.1667,147.5 88.5,147.5C 106.008,147.17 123.341,147.503 140.5,148.5C 99.3299,148.168 58.3299,148.501 17.5,149.5C 16.9569,149.44 16.6236,149.107 16.5,148.5C 22.1278,147.505 27.7945,147.171 33.5,147.5 Z"/></g>
<g><path style="opacity:1" fill="#e1c2f1" d="M 149.5,148.5 C 157.984,147.507 166.651,147.174 175.5,147.5C 189.833,147.5 204.167,147.5 218.5,147.5C 231.833,147.5 245.167,147.5 258.5,147.5C 273.167,147.5 287.833,147.5 302.5,147.5C 309.167,147.5 315.833,147.5 322.5,147.5C 330.5,147.5 338.5,147.5 346.5,147.5C 347.978,147.238 349.311,147.571 350.5,148.5C 350.376,149.107 350.043,149.44 349.5,149.5C 283.002,148.501 216.335,148.168 149.5,148.5 Z"/></g>
<g><path style="opacity:1" fill="#fefefe" d="M 140.5,148.5 C 140.557,149.609 140.89,150.609 141.5,151.5C 144.054,160.745 147.054,169.745 150.5,178.5C 153.393,190.176 157.06,201.51 161.5,212.5C 164.924,225.434 168.924,238.101 173.5,250.5C 177.796,265.053 182.463,279.387 187.5,293.5C 190.703,305.312 194.37,316.978 198.5,328.5C 204.988,348.787 211.322,369.121 217.5,389.5C 221.564,400.694 225.231,412.027 228.5,423.5C 231.732,431.689 234.232,440.023 236,448.5C 228.303,437.982 220.47,427.649 212.5,417.5C 206.653,408.47 200.32,399.803 193.5,391.5C 187.733,382.952 181.733,374.619 175.5,366.5C 165.833,353.167 156.167,339.833 146.5,326.5C 136.155,312.462 125.822,298.462 115.5,284.5C 108.855,274.53 101.855,264.863 94.5,255.5C 88.0654,246.284 81.3987,237.284 74.5,228.5C 69.5216,220.863 64.1883,213.53 58.5,206.5C 51.975,196.771 44.975,187.437 37.5,178.5C 30.8587,168.851 24.1921,159.185 17.5,149.5C 58.3299,148.501 99.3299,148.168 140.5,148.5 Z"/></g>
<g><path style="opacity:1" fill="#fefefe" d="M 149.5,148.5 C 216.335,148.168 283.002,148.501 349.5,149.5C 316.239,252.785 283.072,356.118 250,459.5C 248.341,455.823 246.841,452.156 245.5,448.5C 242.537,437.948 239.204,427.615 235.5,417.5C 231.767,403.877 227.434,390.543 222.5,377.5C 216.898,358.363 210.898,339.363 204.5,320.5C 200.537,306.947 196.204,293.613 191.5,280.5C 187.363,266.757 183.03,253.09 178.5,239.5C 174.738,226.215 170.405,213.215 165.5,200.5C 162.907,190.387 159.907,180.387 156.5,170.5C 154.167,163.167 151.833,155.833 149.5,148.5 Z"/></g>
<g><path style="opacity:1" fill="#fdfefe" d="M 359.5,147.5 C 367.833,147.5 376.167,147.5 384.5,147.5C 392.5,147.5 400.5,147.5 408.5,147.5C 416.833,147.5 425.167,147.5 433.5,147.5C 449.847,147.167 466.18,147.501 482.5,148.5C 468.142,168.518 453.808,188.518 439.5,208.5C 424.268,228.617 409.268,248.951 394.5,269.5C 380.833,288.167 367.167,306.833 353.5,325.5C 338.833,345.5 324.167,365.5 309.5,385.5C 295.411,405.344 281.078,425.011 266.5,444.5C 265.343,446.138 264.176,447.804 263,449.5C 294.442,348.672 326.608,248.006 359.5,147.5 Z"/></g>
<g><path style="opacity:1" fill="#d369b8" d="M 156.5,170.5 C 159.907,180.387 162.907,190.387 165.5,200.5C 164.398,204.473 163.065,208.473 161.5,212.5C 157.06,201.51 153.393,190.176 150.5,178.5C 152.02,176.11 153.02,173.443 153.5,170.5C 154.5,170.5 155.5,170.5 156.5,170.5 Z"/></g>
<g><path style="opacity:1" fill="#e75e86" d="M 37.5,178.5 C 44.975,187.437 51.975,196.771 58.5,206.5C 57.1359,208.22 56.1359,210.22 55.5,212.5C 55.0431,213.298 54.3764,213.631 53.5,213.5C 46.6898,205.226 40.3564,196.559 34.5,187.5C 35.4959,187.586 36.3292,187.252 37,186.5C 38.6105,183.872 38.7772,181.205 37.5,178.5 Z"/></g>
<g><path style="opacity:1" fill="#e26294" d="M 58.5,206.5 C 64.1883,213.53 69.5216,220.863 74.5,228.5C 74.5999,231.667 73.9332,234.667 72.5,237.5C 73.1272,238.417 73.4606,239.417 73.5,240.5C 66.6013,231.716 59.9346,222.716 53.5,213.5C 54.3764,213.631 55.0431,213.298 55.5,212.5C 56.1359,210.22 57.1359,208.22 58.5,206.5 Z"/></g>
<g><path style="opacity:1" fill="#cf6cc3" d="M 165.5,200.5 C 170.405,213.215 174.738,226.215 178.5,239.5C 176.656,243.01 174.989,246.677 173.5,250.5C 168.924,238.101 164.924,225.434 161.5,212.5C 163.065,208.473 164.398,204.473 165.5,200.5 Z"/></g>
<g><path style="opacity:1" fill="#6a9eec" d="M 439.5,208.5 C 440.043,208.56 440.376,208.893 440.5,209.5C 437.855,215.048 436.522,220.714 436.5,226.5C 421.521,247.472 406.187,268.139 390.5,288.5C 391.999,282.169 393.999,276.003 396.5,270C 395.906,269.536 395.239,269.369 394.5,269.5C 409.268,248.951 424.268,228.617 439.5,208.5 Z"/></g>
<g><path style="opacity:1" fill="#dd65a0" d="M 74.5,228.5 C 81.3987,237.284 88.0654,246.284 94.5,255.5C 93.3659,258.216 92.0325,260.882 90.5,263.5C 84.4547,256.12 78.788,248.454 73.5,240.5C 73.4606,239.417 73.1272,238.417 72.5,237.5C 73.9332,234.667 74.5999,231.667 74.5,228.5 Z"/></g>
<g><path style="opacity:1" fill="#ca6fd0" d="M 178.5,239.5 C 183.03,253.09 187.363,266.757 191.5,280.5C 189.394,284.491 188.061,288.824 187.5,293.5C 182.463,279.387 177.796,265.053 173.5,250.5C 174.989,246.677 176.656,243.01 178.5,239.5 Z"/></g>
<g><path style="opacity:1" fill="#d869ae" d="M 94.5,255.5 C 101.855,264.863 108.855,274.53 115.5,284.5C 113.528,287.084 112.528,290.084 112.5,293.5C 104.681,283.864 97.3474,273.864 90.5,263.5C 92.0325,260.882 93.3659,258.216 94.5,255.5 Z"/></g>
<g><path style="opacity:1" fill="#c672dc" d="M 191.5,280.5 C 196.204,293.613 200.537,306.947 204.5,320.5C 203.883,320.389 203.383,320.056 203,319.5C 202.493,323.182 200.993,326.182 198.5,328.5C 194.37,316.978 190.703,305.312 187.5,293.5C 188.061,288.824 189.394,284.491 191.5,280.5 Z"/></g>
<g><path style="opacity:1" fill="#d16cbf" d="M 115.5,284.5 C 125.822,298.462 136.155,312.462 146.5,326.5C 146.795,329.974 145.795,333.307 143.5,336.5C 132.786,322.451 122.453,308.118 112.5,293.5C 112.528,290.084 113.528,287.084 115.5,284.5 Z"/></g>
<g><path style="opacity:1" fill="#7699ec" d="M 394.5,269.5 C 395.239,269.369 395.906,269.536 396.5,270C 393.999,276.003 391.999,282.169 390.5,288.5C 377.898,307.373 364.565,325.707 350.5,343.5C 351.552,337.675 353.219,332.008 355.5,326.5C 355.043,325.702 354.376,325.369 353.5,325.5C 367.167,306.833 380.833,288.167 394.5,269.5 Z"/></g>
<g><path style="opacity:1" fill="#c076ea" d="M 204.5,320.5 C 210.898,339.363 216.898,358.363 222.5,377.5C 222.186,380.947 221.352,384.28 220,387.5C 219.583,388.756 218.75,389.423 217.5,389.5C 211.322,369.121 204.988,348.787 198.5,328.5C 200.993,326.182 202.493,323.182 203,319.5C 203.383,320.056 203.883,320.389 204.5,320.5 Z"/></g>
<g><path style="opacity:1" fill="#ca71d4" d="M 146.5,326.5 C 156.167,339.833 165.833,353.167 175.5,366.5C 174.015,368.934 172.348,371.267 170.5,373.5C 161.145,361.471 152.145,349.137 143.5,336.5C 145.795,333.307 146.795,329.974 146.5,326.5 Z"/></g>
<g><path style="opacity:1" fill="#8293ec" d="M 353.5,325.5 C 354.376,325.369 355.043,325.702 355.5,326.5C 353.219,332.008 351.552,337.675 350.5,343.5C 336.188,363.804 321.521,383.804 306.5,403.5C 307.552,397.675 309.219,392.008 311.5,386.5C 311.043,385.702 310.376,385.369 309.5,385.5C 324.167,365.5 338.833,345.5 353.5,325.5 Z"/></g>
<g><path style="opacity:1" fill="#c475e3" d="M 175.5,366.5 C 181.733,374.619 187.733,382.952 193.5,391.5C 192.743,394.428 191.41,397.094 189.5,399.5C 183.179,390.871 176.845,382.205 170.5,373.5C 172.348,371.267 174.015,368.934 175.5,366.5 Z"/></g>
<g><path style="opacity:1" fill="#bf78ec" d="M 193.5,391.5 C 200.32,399.803 206.653,408.47 212.5,417.5C 211.179,419.861 209.512,421.861 207.5,423.5C 201.147,415.807 195.147,407.807 189.5,399.5C 191.41,397.094 192.743,394.428 193.5,391.5 Z"/></g>
<g><path style="opacity:1" fill="#b07ded" d="M 222.5,377.5 C 227.434,390.543 231.767,403.877 235.5,417.5C 233.884,418.937 232.551,421.27 231.5,424.5C 230.583,423.873 229.583,423.539 228.5,423.5C 225.231,412.027 221.564,400.694 217.5,389.5C 218.75,389.423 219.583,388.756 220,387.5C 221.352,384.28 222.186,380.947 222.5,377.5 Z"/></g>
<g><path style="opacity:1" fill="#8e8ded" d="M 309.5,385.5 C 310.376,385.369 311.043,385.702 311.5,386.5C 309.219,392.008 307.552,397.675 306.5,403.5C 294.23,421.709 281.23,439.375 267.5,456.5C 267.196,455.85 266.863,455.183 266.5,454.5C 268.41,450.284 269.577,445.95 270,441.5C 269.578,443.426 268.411,444.426 266.5,444.5C 281.078,425.011 295.411,405.344 309.5,385.5 Z"/></g>
<g><path style="opacity:1" fill="#a781ed" d="M 212.5,417.5 C 220.47,427.649 228.303,437.982 236,448.5C 234.232,440.023 231.732,431.689 228.5,423.5C 229.583,423.539 230.583,423.873 231.5,424.5C 232.551,421.27 233.884,418.937 235.5,417.5C 239.204,427.615 242.537,437.948 245.5,448.5C 243.91,452.768 242.41,457.101 241,461.5C 240.502,463.544 239.335,464.878 237.5,465.5C 227.087,451.76 217.087,437.76 207.5,423.5C 209.512,421.861 211.179,419.861 212.5,417.5 Z"/></g>
</svg>
